<svg width="25" height="24" viewBox="0 0 25 24" fill="none" xmlns="http://www.w3.org/2000/svg">
<path fill-rule="evenodd" clip-rule="evenodd" d="M12.5504 15.5493C12.4504 15.3493 12.2504 15.3493 12.0504 15.3493C8.95044 15.3493 7.25044 16.6493 6.55044 18.1493C4.85044 16.5493 3.95044 14.4493 3.95044 12.1493C3.95044 10.8493 4.25044 9.64926 4.75044 8.54926C4.95044 8.14926 4.75044 7.74926 4.45044 7.54926C4.05044 7.34926 3.65044 7.54926 3.45044 7.84926C2.75044 9.14926 2.45044 10.5493 2.45044 12.0493C2.45044 15.2493 4.05044 18.2493 6.65044 20.0493C8.25044 21.1493 10.1504 21.7493 12.1504 21.7493C13.6504 21.7493 15.0504 21.4493 16.3504 20.7493C16.5504 20.6493 16.7504 20.4493 16.7504 20.2493C16.7504 20.0493 16.7504 19.7493 16.5504 19.5493L12.5504 15.5493Z" fill="black"/>
<path fill-rule="evenodd" clip-rule="evenodd" d="M19.5503 18.45C21.0503 16.65 21.8503 14.45 21.8503 12.05C21.8503 6.65 17.4503 2.25 12.0503 2.25C9.65029 2.25 7.45029 3.05 5.65029 4.55L4.25029 3.15C3.95029 2.85 3.45029 2.85 3.15029 3.15C2.85029 3.45 2.85029 3.95 3.15029 4.25L19.5503 20.65C19.6503 20.75 19.8503 20.85 20.0503 20.85C20.2503 20.85 20.4503 20.75 20.5503 20.65C20.8503 20.35 20.8503 19.85 20.5503 19.55L19.5503 18.45ZM14.6503 13.45C15.5503 12.75 16.1503 11.55 16.1503 10.35C16.1503 8.15 14.3503 6.35 12.1503 6.35C10.9503 6.35 9.75029 6.95 9.05029 7.85L6.95029 5.75C8.45029 4.55 10.3503 3.85 12.2503 3.85C16.7503 3.85 20.4503 7.55 20.4503 12.05C20.4503 13.95 19.7503 15.85 18.5503 17.35L14.6503 13.45Z" fill="black"/>
</svg>