<svg width="24" height="24" viewBox="0 0 24 24" fill="none" xmlns="http://www.w3.org/2000/svg">
<path d="M5.50195 17.4277C5.50198 16.7372 5.73334 16.144 6.15625 15.6689C6.56517 15.2098 7.11967 14.8976 7.71777 14.6807C8.90227 14.2511 10.4583 14.125 12.0371 14.125C13.6248 14.125 15.1809 14.2556 16.3643 14.6904C16.9618 14.91 17.514 15.2248 17.9209 15.6855C18.3416 16.1621 18.5713 16.756 18.5713 17.4453C18.5712 18.1362 18.3393 18.7299 17.916 19.2051C17.507 19.664 16.9534 19.9764 16.3555 20.1934C15.1708 20.6231 13.615 20.749 12.0371 20.749C10.45 20.749 8.89351 20.6184 7.70996 20.1836C7.11214 19.9639 6.55937 19.6487 6.15234 19.1875C5.73172 18.7108 5.50195 18.1173 5.50195 17.4277ZM7.00195 17.4277C7.00195 17.7598 7.10357 17.9984 7.27734 18.1953C7.46485 18.4077 7.77051 18.6078 8.22656 18.7754C9.15127 19.1152 10.488 19.249 12.0371 19.249C13.5791 19.249 14.9162 19.1197 15.8438 18.7832C16.3016 18.6171 16.6088 18.4181 16.7969 18.207C16.9706 18.012 17.0713 17.7754 17.0713 17.4453C17.0713 17.114 16.9705 16.8754 16.7969 16.6787C16.6094 16.4663 16.303 16.2663 15.8467 16.0986C14.9221 15.7589 13.5864 15.625 12.0371 15.625C10.4939 15.625 9.15685 15.7546 8.22949 16.0908C7.77193 16.2567 7.46522 16.4552 7.27734 16.666C7.10374 16.8609 7.00198 17.0974 7.00195 17.4277Z" fill="black"/>
<path d="M15.2812 7.99512C15.281 6.20322 13.8279 4.75 12.0352 4.75C10.2437 4.75018 8.79122 6.2032 8.79102 7.99512C8.79102 9.7872 10.2436 11.241 12.0352 11.2412C13.828 11.2412 15.2812 9.78719 15.2812 7.99512ZM16.7812 7.99512C16.7812 10.6154 14.6567 12.7412 12.0352 12.7412C9.41469 12.741 7.29102 10.6151 7.29102 7.99512C7.29122 5.37527 9.41481 3.25018 12.0352 3.25C14.6565 3.25 16.781 5.37504 16.7812 7.99512Z" fill="black"/>
<path d="M1.8457 15.5859C1.84579 14.6632 2.30797 13.9739 2.99512 13.5107C3.64592 13.0721 4.50506 12.8255 5.41016 12.6846L5.52539 12.6758H5.53418C5.94825 12.676 6.28418 13.0117 6.28418 13.4258C6.28418 13.8064 6.00017 14.1195 5.63281 14.168C4.81789 14.2955 4.21482 14.4965 3.83301 14.7539C3.48639 14.9876 3.34577 15.2442 3.3457 15.5859C3.3457 15.9326 3.49365 16.1979 3.875 16.4395C4.22498 16.661 4.32897 17.1246 4.10742 17.4746C3.88587 17.8245 3.42318 17.9285 3.07324 17.707C2.3467 17.2471 1.8457 16.5445 1.8457 15.5859Z" fill="black"/>
<path d="M20.6553 15.5859C20.6552 15.2442 20.5136 14.9876 20.167 14.7539C19.7851 14.4966 19.1821 14.2955 18.3672 14.168C18.0001 14.1192 17.7168 13.8062 17.7168 13.4258C17.7168 13.0116 18.0526 12.6758 18.4668 12.6758H18.4746C18.5131 12.6758 18.5518 12.6787 18.5898 12.6846C19.495 12.8255 20.355 13.072 21.0059 13.5107C21.6929 13.9739 22.1552 14.6633 22.1553 15.5859C22.1553 16.5445 21.6542 17.2471 20.9277 17.707C20.5778 17.9286 20.1141 17.8246 19.8926 17.4746C19.6712 17.1247 19.7752 16.661 20.125 16.4395C20.5066 16.1979 20.6553 15.9327 20.6553 15.5859Z" fill="black"/>
<path d="M16.8496 5.10449C16.9085 4.69456 17.2883 4.40996 17.6982 4.46875C19.0358 4.66094 20.1918 5.63613 20.5479 7.0293C20.9882 8.75228 20.0486 10.5007 18.4199 11.1104C18.032 11.2556 17.6003 11.0588 17.4551 10.6709C17.3099 10.283 17.5066 9.85126 17.8945 9.70606C18.8134 9.36198 19.3435 8.37344 19.0947 7.40039C18.8937 6.61396 18.242 6.06193 17.4854 5.95313C17.0754 5.89422 16.7908 5.51442 16.8496 5.10449Z" fill="black"/>
<path d="M6.30174 4.46874C6.71165 4.40998 7.09147 4.69457 7.15038 5.10449C7.20917 5.51441 6.92457 5.89422 6.51463 5.95312C5.75796 6.0619 5.10632 6.61394 4.90526 7.40039C4.65649 8.37345 5.18652 9.36199 6.10545 9.70605C6.49338 9.85125 6.69011 10.283 6.54491 10.6709C6.39971 11.0588 5.96798 11.2555 5.58006 11.1103C3.95141 10.5007 3.01176 8.75228 3.45213 7.02929C3.80822 5.63612 4.96419 4.66094 6.30174 4.46874Z" fill="black"/>
</svg>
