<svg width="24" height="24" viewBox="0 0 24 24" fill="none" xmlns="http://www.w3.org/2000/svg">
<path d="M20.9383 14.1995C20.9298 14.233 20.9204 14.2664 20.9101 14.2997C20.5571 15.4367 19.9631 16.6377 19.1451 17.8707C18.8041 18.4477 18.2611 18.8607 17.6121 19.0337C17.5389 19.0535 17.4651 19.07 17.3911 19.0831C15.9896 21.4732 14.4707 21.7499 12.8707 21.7499C12.6317 21.7499 12.3907 21.7439 12.1477 21.7369L12.0689 21.735C11.8399 21.7295 11.6047 21.7239 11.3617 21.7239C10.9477 21.7239 10.6117 21.3879 10.6117 20.9739C10.6117 20.5599 10.9477 20.2239 11.3617 20.2239C11.6457 20.2239 11.9207 20.2309 12.1857 20.2379C13.7737 20.2802 14.7488 20.3046 15.7768 18.8314C15.7446 18.8146 15.7127 18.797 15.6811 18.7787C14.4691 18.0777 14.0521 16.5207 14.7511 15.3067L16.2581 12.6957C16.9571 11.4827 18.5151 11.0637 19.7301 11.7627L19.8138 11.8113C19.8163 11.7291 19.8176 11.6466 19.8176 11.564C19.8176 7.255 16.3096 3.75 11.9966 3.75C7.68762 3.75 4.18262 7.255 4.18262 11.564C4.18262 11.6476 4.18391 11.731 4.1865 11.8141L4.27114 11.7654C5.48814 11.0654 7.04414 11.4844 7.74514 12.6974L9.25114 15.3074C9.95214 16.5214 9.53514 18.0794 8.32214 18.7804C7.93014 19.0074 7.49414 19.1224 7.05314 19.1224C6.83214 19.1224 6.61014 19.0934 6.39114 19.0354C5.74314 18.8614 5.20014 18.4484 4.85914 17.8714C4.14824 16.8007 3.60645 15.7556 3.24615 14.7568C2.87224 13.7387 2.68262 12.6652 2.68262 11.564C2.68262 6.428 6.86062 2.25 11.9966 2.25C17.1366 2.25 21.3176 6.428 21.3176 11.564C21.3176 12.4648 21.1904 13.3472 20.9383 14.1995Z" fill="black"/>
</svg>