<?xml version="1.0" encoding="iso-8859-1"?>
<!-- Generator: Adobe Illustrator 19.0.0, SVG Export Plug-In . SVG Version: 6.00 Build 0)  -->
<svg version="1.1" id="Layer_1" xmlns="http://www.w3.org/2000/svg" xmlns:xlink="http://www.w3.org/1999/xlink" x="0px" y="0px"
	 viewBox="0 0 512 512" style="enable-background:new 0 0 512 512;" xml:space="preserve">
<g>
	<g>
		<path d="M428.501,0H83.458C70.099,0,57.522,5.217,48.055,14.684S33.371,36.728,33.371,50.087
			c0,27.619,22.468,50.087,50.087,50.087h345.043c13.359,0,25.936-5.217,35.403-14.684c9.466-9.468,14.684-22.044,14.684-35.403
			C478.588,22.468,456.12,0,428.501,0z"/>
	</g>
</g>
<g>
	<g>
		<path d="M510.447,256.283c-8.546-74.812-64.159-117.132-76.38-122.717c-52.144,0-37.515,0-88.715,0v116.87
			c0,18.442-14.949,33.391-33.391,33.391s-33.391-14.949-33.391-33.391v-83.478c0-18.442-14.949-33.391-33.391-33.391
			s-33.391,14.949-33.391,33.391v50.087c0,18.442-14.949,33.391-33.391,33.391s-33.391-14.949-33.391-33.391v-83.478H83.622
			c0,0-13.581,5.382-18.995,9.511C48.105,155.815,8.857,192.337,1.554,256.283c-8.282,72.663,26.153,156.641,102.403,249.609
			c3.174,3.87,7.893,6.108,12.892,6.108H395.11c5,0,9.739-2.239,12.914-6.108C484.273,412.924,518.729,328.945,510.447,256.283z"/>
	</g>
</g>
<g>
</g>
<g>
</g>
<g>
</g>
<g>
</g>
<g>
</g>
<g>
</g>
<g>
</g>
<g>
</g>
<g>
</g>
<g>
</g>
<g>
</g>
<g>
</g>
<g>
</g>
<g>
</g>
<g>
</g>
</svg>
