<svg width="24" height="24" viewBox="0 0 24 24" fill="none" xmlns="http://www.w3.org/2000/svg">
<path fill-rule="evenodd" clip-rule="evenodd" d="M8.28452 11.3065C8.605 11.5689 8.65205 12.0414 8.38963 12.3619L4.1313 17.5622L4.13126 17.5622C2.93607 19.0215 4.88833 20.9404 6.3235 19.7234L6.32355 19.7234L11.4159 15.4062C11.7318 15.1383 12.2051 15.1773 12.473 15.4933C12.7408 15.8092 12.7018 16.2825 12.3859 16.5504L7.2936 20.8675C7.29358 20.8675 7.29356 20.8675 7.29355 20.8676C4.47041 23.2613 0.614152 19.4893 2.97075 16.6118C2.97076 16.6118 2.97078 16.6118 2.97079 16.6118L7.22908 11.4116C7.49151 11.0911 7.96405 11.044 8.28452 11.3065Z" fill="black"/>
<path fill-rule="evenodd" clip-rule="evenodd" d="M4.77045 3.93451C5.06334 3.64162 5.53822 3.64162 5.83111 3.93451L21.53 19.6334C21.8229 19.9263 21.8229 20.4012 21.53 20.6941C21.2371 20.987 20.7623 20.987 20.4694 20.6941L4.77045 4.99517C4.47756 4.70228 4.47756 4.22741 4.77045 3.93451Z" fill="black"/>
<path fill-rule="evenodd" clip-rule="evenodd" d="M18.5624 5.22495C16.7742 3.43684 13.864 3.42882 12.0679 5.22495C11.0134 6.27946 10.5755 7.72942 10.7691 9.09282C10.8273 9.50292 10.5421 9.88258 10.132 9.9408C9.72188 9.99903 9.34223 9.71377 9.284 9.30367C9.02623 7.48804 9.6088 5.56273 11.0072 4.16429C13.391 1.78058 17.2509 1.79219 19.623 4.16429C22.0058 6.5471 22.0058 10.4071 19.623 12.7899C18.2361 14.1768 16.3215 14.7711 14.4941 14.5132C14.0839 14.4553 13.7983 14.0759 13.8562 13.6658C13.9141 13.2556 14.2935 12.97 14.7037 13.0279C16.0749 13.2214 17.516 12.7756 18.5624 11.7292C20.3594 9.93218 20.3594 7.02198 18.5624 5.22495Z" fill="black"/>
<path fill-rule="evenodd" clip-rule="evenodd" d="M9.2077 17.7207C9.55184 17.4902 10.0177 17.5823 10.2482 17.9264L10.9443 18.9657C11.3934 19.6321 12.3189 19.8237 13.0364 19.3481C13.0362 19.3482 13.0366 19.3479 13.0364 19.3481L13.9849 18.7158C14.2799 18.5239 14.612 18.4094 14.9301 18.366C15.3405 18.3101 15.7185 18.5974 15.7745 19.0078C15.8305 19.4182 15.5431 19.7963 15.1327 19.8523C15.0203 19.8676 14.9022 19.9093 14.8054 19.9715L13.8677 20.5966L13.8664 20.5975C12.4845 21.5145 10.6242 21.1765 9.69953 19.8027L9.69858 19.8013L9.00195 18.7612C8.77143 18.4171 8.86355 17.9512 9.2077 17.7207Z" fill="black"/>
</svg>
