<svg width="24" height="24" viewBox="0 0 24 24" fill="none" xmlns="http://www.w3.org/2000/svg">
<path fill-rule="evenodd" clip-rule="evenodd" d="M9.34106 17.8102C9.6854 17.58 10.1512 17.6725 10.3814 18.0168L11.0891 19.0754C11.5492 19.7543 12.4991 19.9475 13.2258 19.4654C13.2262 19.4652 13.2265 19.465 13.2268 19.4648L14.1825 18.825C15.2 18.1446 16.5899 18.3906 17.277 19.4174C17.5074 19.7617 17.415 20.2275 17.0708 20.4579C16.7265 20.6882 16.2607 20.5959 16.0304 20.2516C15.8194 19.9364 15.3693 19.8361 15.0169 20.0715L14.057 20.7141C12.6656 21.6386 10.7814 21.2987 9.84543 19.9141L9.84328 19.9109L9.13439 18.8505C8.90418 18.5062 8.99671 18.0404 9.34106 17.8102Z" fill="black"/>
<path fill-rule="evenodd" clip-rule="evenodd" d="M11.1711 4.0561C13.5835 1.64379 17.4932 1.65219 19.8981 4.05597L19.8984 4.05622C22.3085 6.46748 22.3181 10.3772 19.9052 12.7902L19.905 12.7904C18.4685 14.2257 16.5002 14.8101 14.6326 14.5266C14.2231 14.4645 13.9415 14.0821 14.0036 13.6726C14.0658 13.2631 14.4482 12.9815 14.8577 13.0436C16.2697 13.258 17.7563 12.8169 18.8448 11.7293C20.669 9.90476 20.6647 6.94474 18.8374 5.11663C17.0169 3.29723 14.0571 3.29171 12.232 5.11655C12.2319 5.11662 12.2319 5.11669 12.2318 5.11676M12.2318 5.11676C11.1459 6.2037 10.7084 7.69722 10.918 9.10578C10.9789 9.51549 10.6962 9.89703 10.2865 9.95799C9.87682 10.0189 9.49528 9.73623 9.43432 9.32652C9.15803 7.46947 9.73409 5.49429 11.1709 4.05631L11.1711 4.0561" fill="black"/>
<path fill-rule="evenodd" clip-rule="evenodd" d="M10.0826 8.45209C10.2941 8.44162 10.5002 8.52108 10.65 8.67084L15.2459 13.2667C15.3941 13.4149 15.4735 13.6184 15.4649 13.8279C15.4563 14.0373 15.3604 14.2336 15.2005 14.3691L7.39175 20.9891C7.39174 20.9891 7.39174 20.9891 7.39173 20.9891C4.52882 23.4163 0.638724 19.587 3.01614 16.6859L3.01615 16.6859L9.53958 8.72578C9.67382 8.56197 9.87107 8.46256 10.0826 8.45209ZM10.1749 10.317L4.17633 17.6367C2.95551 19.1264 4.95361 21.0897 6.42173 19.845L6.42175 19.845L13.6094 13.7516L10.1749 10.317Z" fill="black"/>
</svg>
