<svg width="25" height="24" viewBox="0 0 25 24" fill="none" xmlns="http://www.w3.org/2000/svg">
<path fill-rule="evenodd" clip-rule="evenodd" d="M21.3268 13.3164H17.2878C16.7348 13.3164 16.2878 12.8684 16.2878 12.3164C16.2878 11.7644 16.7348 11.3164 17.2878 11.3164H21.3268C21.8798 11.3164 22.3268 11.7644 22.3268 12.3164C22.3268 12.8684 21.8798 13.3164 21.3268 13.3164Z" fill="black"/>
<path fill-rule="evenodd" clip-rule="evenodd" d="M9.68312 14.5156C4.70412 14.5156 2.47412 17.2696 2.47412 19.9996C2.47412 20.1986 2.55312 20.3896 2.69412 20.5306C2.83412 20.6706 3.02512 20.7496 3.22412 20.7496L16.1421 20.7316C16.5561 20.7306 16.8911 20.3946 16.8911 19.9816C16.8911 17.2606 14.6621 14.5156 9.68312 14.5156Z" fill="black"/>
<path fill-rule="evenodd" clip-rule="evenodd" d="M9.68311 13.001C12.3711 13.001 14.5581 10.813 14.5581 8.125C14.5581 5.437 12.3711 3.25 9.68311 3.25C6.99511 3.25 4.80811 5.437 4.80811 8.125C4.80811 10.813 6.99511 13.001 9.68311 13.001Z" fill="black"/>
</svg>