<svg width="24" height="24" viewBox="0 0 24 24" fill="none" xmlns="http://www.w3.org/2000/svg">
<path fill-rule="evenodd" clip-rule="evenodd" d="M16.513 21.5H7.486C5.422 21.5 3.825 20.408 3.347 18.72L1.649 10.855C1.455 9.832 1.759 8.788 2.467 8.01C3.174 7.233 4.184 6.8 5.25 6.8H18.75C19.816 6.8 20.826 7.233 21.533 8.01C22.241 8.788 22.545 9.832 22.352 10.855L20.654 18.72C20.176 20.408 18.578 21.5 16.513 21.5Z" fill="black"/>
<path fill-rule="evenodd" clip-rule="evenodd" d="M16.25 6.8C16.25 4.453 14.347 2.55 12 2.55C9.653 2.55 7.75 4.453 7.75 6.8H9.25C9.25 5.281 10.481 4.05 12 4.05C13.519 4.05 14.75 5.281 14.75 6.8H16.25Z" fill="black"/>
</svg>