<svg width="25" height="24" viewBox="0 0 25 24" fill="none" xmlns="http://www.w3.org/2000/svg">
<path fill-rule="evenodd" clip-rule="evenodd" d="M18.9628 14.3667C18.4098 14.3667 17.9628 13.9187 17.9628 13.3667V12.0857H16.6428C16.0898 12.0857 15.6428 11.6377 15.6428 11.0857C15.6428 10.5337 16.0898 10.0857 16.6428 10.0857H17.9628V8.80469C17.9628 8.25169 18.4098 7.80469 18.9628 7.80469C19.5158 7.80469 19.9628 8.25169 19.9628 8.80469V10.0857H21.2848C21.8378 10.0857 22.2848 10.5337 22.2848 11.0857C22.2848 11.6377 21.8378 12.0857 21.2848 12.0857H19.9628V13.3667C19.9628 13.9187 19.5158 14.3667 18.9628 14.3667Z" fill="black"/>
<path fill-rule="evenodd" clip-rule="evenodd" d="M9.72487 14.5156C4.74587 14.5156 2.51587 17.2696 2.51587 19.9996C2.51587 20.1986 2.59487 20.3896 2.73587 20.5306C2.87587 20.6706 3.06687 20.7496 3.26587 20.7496L16.1839 20.7316C16.5979 20.7306 16.9329 20.3946 16.9329 19.9816C16.9329 17.2606 14.7039 14.5156 9.72487 14.5156Z" fill="black"/>
<path fill-rule="evenodd" clip-rule="evenodd" d="M9.72485 13.001C12.4129 13.001 14.5999 10.813 14.5999 8.125C14.5999 5.437 12.4129 3.25 9.72485 3.25C7.03685 3.25 4.84985 5.437 4.84985 8.125C4.84985 10.813 7.03685 13.001 9.72485 13.001Z" fill="black"/>
</svg>