<svg width="25" height="25" viewBox="0 0 25 25" fill="none" xmlns="http://www.w3.org/2000/svg">
<path fill-rule="evenodd" clip-rule="evenodd" d="M15.7467 11.8985H9.02668C8.61268 11.8985 8.27668 11.5625 8.27668 11.1485C8.27668 10.7345 8.61268 10.3985 9.02668 10.3985H15.7467C16.1607 10.3985 16.4967 10.7345 16.4967 11.1485C16.4967 11.5625 16.1607 11.8985 15.7467 11.8985ZM12.3597 15.8005H8.97368C8.55968 15.8005 8.22368 15.4645 8.22368 15.0505C8.22368 14.6365 8.55968 14.3005 8.97368 14.3005H12.3597C12.7737 14.3005 13.1087 14.6365 13.1087 15.0505C13.1087 15.4645 12.7737 15.8005 12.3597 15.8005ZM19.0197 5.87347C17.2267 4.07547 14.8427 3.08447 12.3037 3.08447C9.76368 3.08447 7.37668 4.07547 5.58368 5.87347C2.77768 8.68947 2.01268 13.0105 3.67068 16.6035C3.86168 17.0795 3.98668 17.4125 3.98668 17.6945C3.98668 18.0275 3.84568 18.4435 3.70868 18.8455C3.44368 19.6245 3.14268 20.5085 3.78668 21.1535C4.43368 21.8025 5.31768 21.4985 6.09868 21.2275C6.49568 21.0905 6.90568 20.9495 7.22968 20.9475C7.52168 20.9475 7.88668 21.0945 8.30968 21.2655C9.57868 21.8525 10.9337 22.1375 12.2807 22.1375C14.7577 22.1375 17.2037 21.1725 19.0197 19.3505C22.7237 15.6345 22.7237 9.58847 19.0197 5.87347Z" fill="black"/>
</svg>