<svg width="24" height="24" viewBox="0 0 24 24" fill="none" xmlns="http://www.w3.org/2000/svg">
<path fill-rule="evenodd" clip-rule="evenodd" d="M21.4055 19.6322L16.0265 14.2532C17.2575 14.0742 18.4235 13.5092 19.3215 12.6112C21.6015 10.3312 21.6015 6.62022 19.3215 4.34022C17.0435 2.06122 13.3375 2.06222 11.0595 4.34022C10.1585 5.23922 9.59553 6.41022 9.41853 7.64522L5.70653 3.93322C5.41353 3.64022 4.93853 3.64022 4.64553 3.93322C4.35253 4.22622 4.35253 4.70022 4.64553 4.99322L20.3445 20.6932C20.4915 20.8392 20.6835 20.9122 20.8755 20.9122C21.0675 20.9122 21.2595 20.8392 21.4055 20.6932C21.6985 20.4002 21.6985 19.9252 21.4055 19.6322Z" fill="black"/>
<path fill-rule="evenodd" clip-rule="evenodd" d="M14.8021 18.3647C14.4641 18.4117 14.1381 18.5327 13.8531 18.7187L12.9121 19.3467C12.2131 19.8117 11.2741 19.6397 10.8201 18.9647L10.1701 17.9937L12.0991 16.3587C12.2061 16.2687 12.2701 16.1377 12.2761 15.9977C12.2811 15.8587 12.2281 15.7227 12.1301 15.6237L8.0371 11.5317C7.9381 11.4317 7.7991 11.3767 7.6591 11.3857C7.5181 11.3937 7.3861 11.4597 7.2971 11.5687L3.0391 16.7687C1.9261 18.1277 2.3631 19.6747 3.2391 20.5367C3.7361 21.0247 4.4501 21.3687 5.2191 21.3687C5.8061 21.3687 6.4271 21.1677 7.0061 20.6757L9.0181 18.9697L9.5741 19.8007C10.1451 20.6487 11.0881 21.1057 12.0531 21.1057C12.6341 21.1057 13.2221 20.9407 13.7431 20.5957L14.6781 19.9717C14.7731 19.9097 14.8901 19.8667 15.0101 19.8497C15.4201 19.7927 15.7061 19.4137 15.6491 19.0037C15.5911 18.5927 15.2081 18.3087 14.8021 18.3647Z" fill="black"/>
</svg>