<svg width="24" height="24" viewBox="0 0 24 24" fill="none" xmlns="http://www.w3.org/2000/svg">
<path fill-rule="evenodd" clip-rule="evenodd" d="M11.6324 3.75C7.39753 3.75 3.96484 7.18268 3.96484 11.4175C3.96484 15.6525 7.39764 19.086 11.6324 19.086C13.631 19.086 15.451 18.3212 16.8158 17.0682C16.8203 17.0635 16.8249 17.0588 16.8295 17.0541C16.8479 17.0357 16.867 17.0185 16.8867 17.0024C18.3723 15.6038 19.2999 13.6189 19.2999 11.4175C19.2999 7.18268 15.8672 3.75 11.6324 3.75ZM18.4196 17.5808C19.8986 15.9526 20.7999 13.7903 20.7999 11.4175C20.7999 6.35426 16.6956 2.25 11.6324 2.25C6.5691 2.25 2.46484 6.35426 2.46484 11.4175C2.46484 16.4807 6.56899 20.586 11.6324 20.586C13.7826 20.586 15.7599 19.8456 17.3233 18.6059L20.2559 21.531C20.5492 21.8235 21.024 21.8229 21.3166 21.5296C21.6091 21.2364 21.6085 20.7615 21.3152 20.469L18.4196 17.5808ZM12.6151 6.52275C12.7356 6.12645 13.1546 5.90289 13.5508 6.02341C15.184 6.52006 16.4743 7.78976 16.9983 9.40968C17.1258 9.80378 16.9097 10.2266 16.5156 10.3541C16.1215 10.4816 15.6987 10.2655 15.5712 9.87138C15.1981 8.71823 14.2777 7.81227 13.1144 7.45851C12.7181 7.338 12.4946 6.91904 12.6151 6.52275Z" fill="black"/>
</svg>
