<svg width="24" height="25" viewBox="0 0 24 25" fill="none" xmlns="http://www.w3.org/2000/svg">
<path fill-rule="evenodd" clip-rule="evenodd" d="M11.9517 17.8899H7.84172C7.43172 17.8899 7.09172 17.5599 7.09172 17.1399C7.09172 16.7299 7.43172 16.3899 7.84172 16.3899H11.9517C12.3717 16.3899 12.7017 16.7299 12.7017 17.1399C12.7017 17.5599 12.3717 17.8899 11.9517 17.8899ZM8.06172 6.11992C8.06172 5.70992 8.18172 5.30992 8.39172 4.97992C8.77172 4.34992 9.47172 3.91992 10.2717 3.91992C10.5217 3.91992 10.7717 3.95992 10.9917 4.04992C11.4817 4.21992 11.8817 4.54992 12.1517 4.97992C12.1617 4.98992 12.1617 4.99992 12.1617 5.00992C12.3617 5.32992 12.4717 5.71992 12.4717 6.11992V6.47992H8.06172V6.11992ZM20.8417 20.9399L19.4617 7.98992C19.3717 7.14992 18.6717 6.51992 17.8317 6.51992H17.7617V6.11992C17.7617 5.72992 17.7017 5.34992 17.5817 4.98992C17.4617 4.60992 17.2817 4.25992 17.0617 3.94992C16.7117 3.47992 16.2717 3.09992 15.7517 2.83992C15.2417 2.56992 14.6717 2.41992 14.0617 2.41992C13.3617 2.41992 12.7117 2.61992 12.1517 2.94992C12.0917 2.90992 12.0217 2.86992 11.9617 2.83992C11.4517 2.56992 10.8817 2.41992 10.2717 2.41992C8.63172 2.41992 7.22172 3.49992 6.74172 4.97992C6.62172 5.33992 6.56172 5.71992 6.56172 6.11992V6.47992H6.21172C6.13172 6.47992 6.04172 6.47992 5.96172 6.49992C5.92172 6.49992 5.89172 6.50992 5.85172 6.51992C5.04172 6.63992 4.36172 7.21992 4.10172 7.97992C4.07172 8.04992 4.04172 8.12992 4.03172 8.20992C3.99172 8.31992 3.97172 8.43992 3.96172 8.55992L3.08172 20.3899C3.07172 20.4899 3.07172 20.5899 3.08172 20.6899C3.09172 20.8999 3.13172 21.1199 3.21172 21.3099C3.30172 21.5899 3.46172 21.8599 3.67172 22.0899C3.99172 22.4399 4.41172 22.6699 4.86172 22.7599C5.01172 22.7899 5.17172 22.8099 5.32172 22.8099H14.8417C15.0017 22.8099 15.1517 22.7899 15.3017 22.7599C15.7617 22.6699 16.1717 22.4399 16.4917 22.0899C16.9217 21.6299 17.1317 21.0099 17.0917 20.3899L16.2017 8.55992C16.1217 7.53992 15.3617 6.70992 14.3917 6.51992H14.3717C14.2417 6.48992 14.1117 6.47992 13.9717 6.47992V6.11992C13.9717 5.72992 13.9117 5.34992 13.7917 4.98992C13.6817 4.64992 13.5317 4.32992 13.3417 4.04992C13.5717 3.95992 13.8117 3.91992 14.0617 3.91992C14.8517 3.91992 15.5517 4.34992 15.9417 4.97992C16.1417 5.30992 16.2617 5.70992 16.2617 6.11992V6.58992C16.4517 6.84992 16.6017 7.12992 16.7117 7.42992C16.8317 7.74992 16.9117 8.08992 16.9417 8.44992L17.0217 9.49992L17.8317 20.2999C17.8917 21.1799 17.6417 22.0599 17.1317 22.7499C17.8517 22.7099 18.5117 22.3099 18.8717 21.6899L19.0317 21.4099L19.6417 22.1599C19.9517 22.5399 20.5617 22.8799 20.8117 22.4599C21.0017 22.1199 20.9117 21.5599 20.8417 20.9399Z" fill="black"/>
</svg>