<svg width="24" height="24" viewBox="0 0 24 24" fill="none" xmlns="http://www.w3.org/2000/svg">
<path fill-rule="evenodd" clip-rule="evenodd" d="M14.9163 3.08639C14.7013 3.03739 14.4733 3.12539 14.3433 3.30839C14.2323 3.46139 14.2173 3.72139 14.3063 3.88939C15.8063 6.71839 15.2693 10.2804 12.9993 12.5514C10.7263 14.8244 7.16827 15.3574 4.34627 13.8444C4.33827 13.8394 4.32927 13.8354 4.32027 13.8314C4.12327 13.7374 3.88827 13.7724 3.72027 13.9154C3.57227 14.0424 3.49427 14.3044 3.54827 14.4914C4.67227 18.4264 8.31527 21.1744 12.4073 21.1744C17.4903 21.1744 21.6253 17.0384 21.6253 11.9544C21.6253 7.86739 18.8793 4.22439 14.9163 3.08639Z" fill="black"/>
<path fill-rule="evenodd" clip-rule="evenodd" d="M7.46902 6.17432H8.99502L6.86902 9.00432C6.69802 9.23132 6.67102 9.53532 6.79802 9.78932C6.92502 10.0443 7.18502 10.2043 7.46902 10.2043H10.496C10.91 10.2043 11.246 9.86832 11.246 9.45432C11.246 9.04032 10.91 8.70432 10.496 8.70432H8.97002L11.096 5.87432C11.267 5.64732 11.294 5.34332 11.167 5.08932C11.04 4.83532 10.781 4.67432 10.496 4.67432H7.46902C7.05502 4.67432 6.71902 5.01032 6.71902 5.42432C6.71902 5.83832 7.05502 6.17432 7.46902 6.17432Z" fill="black"/>
<path fill-rule="evenodd" clip-rule="evenodd" d="M5.95527 6.34422C5.95527 5.93022 5.61927 5.59422 5.20527 5.59422H4.62627L5.80527 4.02522C5.97627 3.79822 6.00327 3.49322 5.87627 3.24022C5.74927 2.98522 5.48927 2.82422 5.20527 2.82422H3.12527C2.71127 2.82422 2.37527 3.16022 2.37527 3.57422C2.37527 3.98922 2.71127 4.32422 3.12527 4.32422H3.70427L2.52527 5.89422C2.35427 6.12122 2.32727 6.42522 2.45427 6.67922C2.58127 6.93322 2.84127 7.09422 3.12527 7.09422H5.20527C5.61927 7.09422 5.95527 6.75822 5.95527 6.34422Z" fill="black"/>
</svg>